<svg xmlns="http://www.w3.org/2000/svg" xmlns:xlink="http://www.w3.org/1999/xlink" contentStyleType="text/css" height="809px" preserveAspectRatio="none" style="width:1230px;height:809px;background:#FFFFFF;" version="1.1" viewBox="0 0 1230 809" width="1230px" zoomAndPan="magnify"><defs/><g><rect fill="#FFFFFF" height="628.6563" style="stroke:#181818;stroke-width:1.0;" width="10" x="332" y="155.5625"/><rect fill="#FFFFFF" height="58.2656" style="stroke:#181818;stroke-width:1.0;" width="10" x="623" y="184.6953"/><rect fill="#FFFFFF" height="166.7969" style="stroke:#181818;stroke-width:1.0;" width="10" x="623" y="272.0938"/><rect fill="#FFFFFF" height="58.2656" style="stroke:#181818;stroke-width:1.0;" width="10" x="623" y="511.1563"/><rect fill="#FFFFFF" height="29.1328" style="stroke:#181818;stroke-width:1.0;" width="10" x="1152" y="725.9531"/><line style="stroke:#181818;stroke-width:0.5;stroke-dasharray:5.0,5.0;" x1="57" x2="57" y1="81.2969" y2="802.2188"/><line style="stroke:#181818;stroke-width:0.5;stroke-dasharray:5.0,5.0;" x1="337" x2="337" y1="81.2969" y2="802.2188"/><line style="stroke:#181818;stroke-width:0.5;stroke-dasharray:5.0,5.0;" x1="628" x2="628" y1="81.2969" y2="802.2188"/><line style="stroke:#181818;stroke-width:0.5;stroke-dasharray:5.0,5.0;" x1="953.5" x2="953.5" y1="81.2969" y2="802.2188"/><line style="stroke:#181818;stroke-width:0.5;stroke-dasharray:5.0,5.0;" x1="1156.5" x2="1156.5" y1="81.2969" y2="802.2188"/><text fill="#000000" font-family="sans-serif" font-size="14" lengthAdjust="spacing" textLength="98" x="5" y="77.9951">Data Engineer</text><ellipse cx="57" cy="13.5" fill="#E2E2F0" rx="8" ry="8" style="stroke:#181818;stroke-width:0.5;"/><path d="M57,21.5 L57,48.5 M44,29.5 L70,29.5 M57,48.5 L44,63.5 M57,48.5 L70,63.5 " fill="none" style="stroke:#181818;stroke-width:0.5;"/><rect fill="#E2E2F0" height="30.2969" rx="2.5" ry="2.5" style="stroke:#181818;stroke-width:0.5;" width="120" x="277" y="50"/><text fill="#000000" font-family="sans-serif" font-size="14" lengthAdjust="spacing" textLength="106" x="284" y="69.9951">Phase1Pipeline</text><rect fill="#E2E2F0" height="30.2969" rx="2.5" ry="2.5" style="stroke:#181818;stroke-width:0.5;" width="160" x="548" y="50"/><text fill="#000000" font-family="sans-serif" font-size="14" lengthAdjust="spacing" textLength="146" x="555" y="69.9951">CreditScoringCleaner</text><rect fill="#E2E2F0" height="30.2969" rx="2.5" ry="2.5" style="stroke:#181818;stroke-width:0.5;" width="175" x="866.5" y="50"/><text fill="#000000" font-family="sans-serif" font-size="14" lengthAdjust="spacing" textLength="161" x="873.5" y="69.9951">Database (PostgreSQL)</text><rect fill="#E2E2F0" height="30.2969" rx="2.5" ry="2.5" style="stroke:#181818;stroke-width:0.5;" width="123" x="1095.5" y="50"/><text fill="#000000" font-family="sans-serif" font-size="14" lengthAdjust="spacing" textLength="109" x="1102.5" y="69.9951">FeatureRegistry</text><rect fill="#FFFFFF" height="628.6563" style="stroke:#181818;stroke-width:1.0;" width="10" x="332" y="155.5625"/><rect fill="#FFFFFF" height="58.2656" style="stroke:#181818;stroke-width:1.0;" width="10" x="623" y="184.6953"/><rect fill="#FFFFFF" height="166.7969" style="stroke:#181818;stroke-width:1.0;" width="10" x="623" y="272.0938"/><rect fill="#FFFFFF" height="58.2656" style="stroke:#181818;stroke-width:1.0;" width="10" x="623" y="511.1563"/><rect fill="#FFFFFF" height="29.1328" style="stroke:#181818;stroke-width:1.0;" width="10" x="1152" y="725.9531"/><rect fill="#EEEEEE" height="3" style="stroke:#EEEEEE;stroke-width:1.0;" width="1223.5" x="0" y="111.8633"/><line style="stroke:#000000;stroke-width:1.0;" x1="0" x2="1223.5" y1="111.8633" y2="111.8633"/><line style="stroke:#000000;stroke-width:1.0;" x1="0" x2="1223.5" y1="114.8633" y2="114.8633"/><rect fill="#EEEEEE" height="23.1328" style="stroke:#000000;stroke-width:2.0;" width="252" x="485.75" y="101.2969"/><text fill="#000000" font-family="sans-serif" font-size="13" font-weight="bold" lengthAdjust="spacing" textLength="233" x="491.75" y="117.3638">&#201;tape 1: Ingestion &amp; Nettoyage</text><polygon fill="#181818" points="320,151.5625,330,155.5625,320,159.5625" style="stroke:#181818;stroke-width:1.0;"/><line style="stroke:#181818;stroke-width:1.0;" x1="57" x2="326" y1="155.5625" y2="155.5625"/><text fill="#000000" font-family="sans-serif" font-size="13" lengthAdjust="spacing" textLength="85" x="152" y="150.4966">run_phase1()</text><polygon fill="#181818" points="611,180.6953,621,184.6953,611,188.6953" style="stroke:#181818;stroke-width:1.0;"/><line style="stroke:#181818;stroke-width:1.0;" x1="342" x2="617" y1="184.6953" y2="184.6953"/><text fill="#000000" font-family="sans-serif" font-size="13" lengthAdjust="spacing" textLength="122" x="421.5" y="179.6294">ingest_all(data_dir)</text><polygon fill="#181818" points="942,209.8281,952,213.8281,942,217.8281" style="stroke:#181818;stroke-width:1.0;"/><line style="stroke:#181818;stroke-width:1.0;" x1="633" x2="948" y1="213.8281" y2="213.8281"/><text fill="#000000" font-family="sans-serif" font-size="13" lengthAdjust="spacing" textLength="252" x="667.5" y="208.7622">CREATE TABLE raw_* (COPY FROM CSV)</text><polygon fill="#181818" points="639,238.9609,629,242.9609,639,246.9609" style="stroke:#181818;stroke-width:1.0;"/><line style="stroke:#181818;stroke-width:1.0;stroke-dasharray:2.0,2.0;" x1="633" x2="953" y1="242.9609" y2="242.9609"/><text fill="#000000" font-family="sans-serif" font-size="13" lengthAdjust="spacing" textLength="53" x="764.5" y="237.895">Success</text><polygon fill="#181818" points="611,268.0938,621,272.0938,611,276.0938" style="stroke:#181818;stroke-width:1.0;"/><line style="stroke:#181818;stroke-width:1.0;" x1="342" x2="617" y1="272.0938" y2="272.0938"/><text fill="#000000" font-family="sans-serif" font-size="13" lengthAdjust="spacing" textLength="113" x="426" y="267.0278">create_all_views()</text><path d="M549,285.0938 L549,325.0938 L706,325.0938 L706,295.0938 L696,285.0938 L549,285.0938 " fill="#FEFFDD" style="stroke:#181818;stroke-width:0.5;"/><path d="M696,285.0938 L696,295.0938 L706,295.0938 L696,285.0938 " fill="#FEFFDD" style="stroke:#181818;stroke-width:0.5;"/><text fill="#000000" font-family="sans-serif" font-size="13" lengthAdjust="spacing" textLength="136" x="555" y="302.1606">Utilise REGISTRY pour</text><text fill="#000000" font-family="sans-serif" font-size="13" lengthAdjust="spacing" textLength="121" x="555" y="317.2935">conna&#238;tre les types</text><polygon fill="#181818" points="942,347.4922,952,351.4922,942,355.4922" style="stroke:#181818;stroke-width:1.0;"/><line style="stroke:#181818;stroke-width:1.0;" x1="633" x2="948" y1="351.4922" y2="351.4922"/><text fill="#000000" font-family="sans-serif" font-size="13" lengthAdjust="spacing" textLength="295" x="646" y="346.4263">CREATE VIEW v_clean_* (Casting &amp; Renaming)</text><polygon fill="#181818" points="942,376.625,952,380.625,942,384.625" style="stroke:#181818;stroke-width:1.0;"/><line style="stroke:#181818;stroke-width:1.0;" x1="633" x2="948" y1="380.625" y2="380.625"/><text fill="#000000" font-family="sans-serif" font-size="13" lengthAdjust="spacing" textLength="296" x="645.5" y="375.5591">CREATE VIEW v_agg_* (Group By SK_ID_CURR)</text><polygon fill="#181818" points="942,405.7578,952,409.7578,942,413.7578" style="stroke:#181818;stroke-width:1.0;"/><line style="stroke:#181818;stroke-width:1.0;" x1="633" x2="948" y1="409.7578" y2="409.7578"/><text fill="#000000" font-family="sans-serif" font-size="13" lengthAdjust="spacing" textLength="297" x="645" y="404.6919">CREATE VIEW v_master (JOIN v_clean + v_agg)</text><polygon fill="#181818" points="639,434.8906,629,438.8906,639,442.8906" style="stroke:#181818;stroke-width:1.0;"/><line style="stroke:#181818;stroke-width:1.0;stroke-dasharray:2.0,2.0;" x1="633" x2="953" y1="438.8906" y2="438.8906"/><text fill="#000000" font-family="sans-serif" font-size="13" lengthAdjust="spacing" textLength="53" x="764.5" y="433.8247">Success</text><rect fill="#EEEEEE" height="3" style="stroke:#EEEEEE;stroke-width:1.0;" width="1223.5" x="0" y="467.457"/><line style="stroke:#000000;stroke-width:1.0;" x1="0" x2="1223.5" y1="467.457" y2="467.457"/><line style="stroke:#000000;stroke-width:1.0;" x1="0" x2="1223.5" y1="470.457" y2="470.457"/><rect fill="#EEEEEE" height="23.1328" style="stroke:#000000;stroke-width:2.0;" width="216" x="503.75" y="456.8906"/><text fill="#000000" font-family="sans-serif" font-size="13" font-weight="bold" lengthAdjust="spacing" textLength="197" x="509.75" y="472.9575">&#201;tape 2: Analyse &amp; Qualit&#233;</text><polygon fill="#181818" points="611,507.1563,621,511.1563,611,515.1563" style="stroke:#181818;stroke-width:1.0;"/><line style="stroke:#181818;stroke-width:1.0;" x1="342" x2="617" y1="511.1563" y2="511.1563"/><text fill="#000000" font-family="sans-serif" font-size="13" lengthAdjust="spacing" textLength="105" x="430" y="506.0903">load_train_test()</text><polygon fill="#181818" points="942,536.2891,952,540.2891,942,544.2891" style="stroke:#181818;stroke-width:1.0;"/><line style="stroke:#181818;stroke-width:1.0;" x1="633" x2="948" y1="540.2891" y2="540.2891"/><text fill="#000000" font-family="sans-serif" font-size="13" lengthAdjust="spacing" textLength="252" x="667.5" y="535.2231">SELECT * FROM v_features_engineering</text><polygon fill="#181818" points="639,565.4219,629,569.4219,639,573.4219" style="stroke:#181818;stroke-width:1.0;"/><line style="stroke:#181818;stroke-width:1.0;stroke-dasharray:2.0,2.0;" x1="633" x2="953" y1="569.4219" y2="569.4219"/><text fill="#000000" font-family="sans-serif" font-size="13" lengthAdjust="spacing" textLength="133" x="724.5" y="564.356">DataFrame (Pandas)</text><line style="stroke:#181818;stroke-width:1.0;" x1="342" x2="384" y1="598.5547" y2="598.5547"/><line style="stroke:#181818;stroke-width:1.0;" x1="384" x2="384" y1="598.5547" y2="611.5547"/><line style="stroke:#181818;stroke-width:1.0;" x1="343" x2="384" y1="611.5547" y2="611.5547"/><polygon fill="#181818" points="353,607.5547,343,611.5547,353,615.5547" style="stroke:#181818;stroke-width:1.0;"/><text fill="#000000" font-family="sans-serif" font-size="13" lengthAdjust="spacing" textLength="191" x="349" y="593.4888">Analyser d&#233;s&#233;quilibre (Target)</text><line style="stroke:#181818;stroke-width:1.0;" x1="342" x2="384" y1="640.6875" y2="640.6875"/><line style="stroke:#181818;stroke-width:1.0;" x1="384" x2="384" y1="640.6875" y2="653.6875"/><line style="stroke:#181818;stroke-width:1.0;" x1="343" x2="384" y1="653.6875" y2="653.6875"/><polygon fill="#181818" points="353,649.6875,343,653.6875,353,657.6875" style="stroke:#181818;stroke-width:1.0;"/><text fill="#000000" font-family="sans-serif" font-size="13" lengthAdjust="spacing" textLength="257" x="349" y="635.6216">V&#233;rifier valeurs manquantes (Missingno)</text><rect fill="#EEEEEE" height="3" style="stroke:#EEEEEE;stroke-width:1.0;" width="1223.5" x="0" y="682.2539"/><line style="stroke:#000000;stroke-width:1.0;" x1="0" x2="1223.5" y1="682.2539" y2="682.2539"/><line style="stroke:#000000;stroke-width:1.0;" x1="0" x2="1223.5" y1="685.2539" y2="685.2539"/><rect fill="#EEEEEE" height="23.1328" style="stroke:#000000;stroke-width:2.0;" width="222" x="500.75" y="671.6875"/><text fill="#000000" font-family="sans-serif" font-size="13" font-weight="bold" lengthAdjust="spacing" textLength="203" x="506.75" y="687.7544">&#201;tape 3: Pr&#233;paration Finale</text><polygon fill="#181818" points="1140,721.9531,1150,725.9531,1140,729.9531" style="stroke:#181818;stroke-width:1.0;"/><line style="stroke:#181818;stroke-width:1.0;" x1="342" x2="1146" y1="725.9531" y2="725.9531"/><text fill="#000000" font-family="sans-serif" font-size="13" lengthAdjust="spacing" textLength="125" x="684.5" y="720.8872">sync_to_db(engine)</text><polygon fill="#181818" points="965,751.0859,955,755.0859,965,759.0859" style="stroke:#181818;stroke-width:1.0;"/><line style="stroke:#181818;stroke-width:1.0;" x1="959" x2="1156" y1="755.0859" y2="755.0859"/><text fill="#000000" font-family="sans-serif" font-size="13" lengthAdjust="spacing" textLength="174" x="968.5" y="750.02">UPDATE metadata_registry</text><polygon fill="#181818" points="68,780.2188,58,784.2188,68,788.2188" style="stroke:#181818;stroke-width:1.0;"/><line style="stroke:#181818;stroke-width:1.0;" x1="62" x2="336" y1="784.2188" y2="784.2188"/><text fill="#000000" font-family="sans-serif" font-size="13" lengthAdjust="spacing" textLength="251" x="71.5" y="779.1528">Rapport de synth&#232;se (Shapes, Timings)</text><!--SRC=[ZLJDRfj04Bxp5ACS8aYRWzkRLLUoCOxSveU0dIfI9JI12LaLBsHtSSGZv4tgIr-25-iiE8gfsgWNjD9-E_FzpA1_25cXmWt4fYa8j54YDVMcSFJh3JtM95Ew8AqnfsaXShaXQI3b3od7mTIK2excQ102cGj9f8u0DQmrNtCH8r9H8Ryu2XzGqoWK5HKCwq3XQ0Zn5MN2n6cfXCpzWb3kg_cnFqJQXdTS3zomr2PN55-VUnrqFXiY5uIcLXHHBbXXqs6YuCnn9XDedmrM1ACnB6LEseXImZ5SaZ5bmt9XCd4SAmHEFpDN68EgPL9rEbpFQXTRD6HbE7pD8ER9AD4LIx0et8nv9fbG1sYhnU8OFfynse-2wIg0rNHs7e32f-G4NFygl8L5T7N1w1klWtywFUtnSPsc78UJqQ3aW46gM3LP1ibMq9Ds_-X_MVAXtBAo7hyseX3i9XkpZ5VHBLHbhRxBj9GIsrz64HIamJGLwRznlra6ts2Rf3QnZZwobp9dBoEIkE6ZzyOpp7Fxw4oLTGMp1kAloNAU-EieUklLXdimV_VBrVBofJUywylzfsEl4_1X35E9HSCM7CDrZOKmxQwB_z3LeiGiCGg5J0m7xBuHQXoS1_uAJleGjybzFuKweVsIi2T3adQY5xnpTgHHPgYzVoJS3UAUhOAitUbszrXpVdSSaxj2bPFn3h4txKw9Uy7WBHPKAmqRb8yrRmTdwbu8hPcCBBr3GpwE8LJjplu5kgrO26v81uxmf71ftSWqCMMItRczi0DBx99Pr8ibwt1kuzkGmMuhr7uZ3sLsYzatwFPk315MLQaCP6IRcOVsfrtw-859wlUm4dQuXbQ5ezy0]--></g></svg>